<?xml version="1.0" encoding="UTF-8"?>
<svg width="100px" height="100px" viewBox="0 0 100 100" version="1.1" xmlns="http://www.w3.org/2000/svg" xmlns:xlink="http://www.w3.org/1999/xlink">
    <!-- Generator: Sketch 48.1 (47250) - http://www.bohemiancoding.com/sketch -->
    <title>icon1</title>
    <desc>Created with Sketch.</desc>
    <defs></defs>
    <g id="demo-page" stroke="none" stroke-width="1" fill="none" fill-rule="evenodd">
        <g id="icon1" fill="#398186" fill-rule="nonzero">
            <g id="003-favorite" transform="translate(2.000000, 8.000000)">
                <path d="M89.1650522,7.89124668 C84.0857763,2.82855076 77.3613909,0.0614902339 70.1846003,0.0614902339 C63.0078097,0.0614902339 56.2628604,2.8490475 51.1835846,7.91174343 L48.5308454,10.5558235 L45.8369784,7.87074994 C40.7577026,2.80805401 33.9921894,0 26.8153989,0 C19.6591722,0 12.9142229,2.78755727 7.85551088,7.82975645 C2.77623503,12.8924524 -0.0204512679,19.6153846 0.000112601934,26.7687485 C0.000112601934,33.9221124 2.81736277,40.6245479 7.89663862,45.6872438 L46.5155861,84.1801302 C47.0502468,84.7130456 47.7699822,85 48.4691538,85 C49.1683254,85 49.8880608,84.7335423 50.4227214,84.200627 L89.1239244,45.7692308 C94.2032003,40.7065348 96.9998866,33.9836026 96.9998866,26.8302387 C97.0204504,19.6768748 94.244328,12.9539426 89.1650522,7.89124668 Z M85.2167892,41.8543525 L48.4691538,78.338558 L11.8037739,41.7928623 C7.7732554,37.7755004 5.55235745,32.4463468 5.55235745,26.7687485 C5.55235745,21.0911502 7.75269153,15.7619966 11.78321,11.7651314 C15.7931646,7.76826622 21.1397708,5.5546178 26.8153989,5.5546178 C32.5115908,5.5546178 37.8787608,7.76826622 41.9092793,11.7856282 L46.5567139,16.4178925 C47.646599,17.5042199 49.3945279,17.5042199 50.484413,16.4178925 L55.0907199,11.8266217 C59.1212384,7.80925971 64.4884084,5.59561129 70.1640364,5.59561129 C75.8396645,5.59561129 81.1862707,7.80925971 85.2167892,11.8061249 C89.2473076,15.8234869 91.4476417,21.1526405 91.4476417,26.8302387 C91.4682056,32.507837 89.2473076,37.8369906 85.2167892,41.8543525 Z" id="Shape"></path>
            </g>
        </g>
    </g>
</svg>