<?xml version="1.0" encoding="UTF-8"?>
<svg width="100px" height="100px" viewBox="0 0 100 100" version="1.1" xmlns="http://www.w3.org/2000/svg" xmlns:xlink="http://www.w3.org/1999/xlink">
    <!-- Generator: Sketch 48.1 (47250) - http://www.bohemiancoding.com/sketch -->
    <title>icon2</title>
    <desc>Created with Sketch.</desc>
    <defs></defs>
    <g id="demo-page" stroke="none" stroke-width="1" fill="none" fill-rule="evenodd">
        <g id="icon2" fill="#398186" fill-rule="nonzero">
            <g id="002-home" transform="translate(3.000000, 8.000000)">
                <path d="M94.9789965,33.5290539 L49.4735801,0.477919658 C48.5960817,-0.159306553 47.4039589,-0.159306553 46.5268355,0.477919658 L1.02104405,33.5290539 C-0.0904539125,34.3364675 -0.331953469,35.8847077 0.481982536,36.9872988 C1.29591854,38.0898898 2.85685318,38.3290821 3.96816364,37.5220405 L48.0000203,5.54094787 L92.0318769,37.5218545 C92.4758761,37.8445596 92.9918752,37.9998672 93.5033742,37.9998672 C94.2713728,37.9998672 95.0292464,37.6492626 95.5178705,36.9871128 C96.331994,35.8847077 96.0904945,34.3364675 94.9789965,33.5290539 Z" id="Shape"></path>
                <path d="M83.4998622,38 C82.1193742,38 80.9999123,39.112342 80.9999123,40.4844671 L80.9999123,80.0306922 L61.0006891,80.0306922 L61.0006891,58.4438608 C61.0006891,51.5935071 55.392668,46.0205913 48.5,46.0205913 C41.607332,46.0205913 35.9993109,51.5938806 35.9993109,58.4438608 L35.9993109,80.030879 L15.9998998,80.030879 L15.9998998,40.4846539 C15.9998998,39.1125288 14.8804379,38.0001868 13.4999499,38.0001868 C12.1194619,38.0001868 11,39.1125288 11,40.4846539 L11,82.5155329 C11,83.887658 12.1194619,85 13.4999499,85 L38.4992608,85 C39.8139755,85 40.8898391,83.9905627 40.9894387,82.7090161 C40.9954522,82.6509338 40.9992107,82.5874354 40.9992107,82.5155329 L40.9992107,58.4440475 C40.9992107,54.3336486 44.3639858,50.9897123 48.5,50.9897123 C52.6360142,50.9897123 56.0007893,54.3338353 56.0007893,58.4440475 L56.0007893,82.5155329 C56.0007893,82.5870619 56.0045478,82.6494397 56.0105613,82.706775 C56.1090334,83.9892553 57.1852728,85 58.5007392,85 L83.5000501,85 C84.880726,85 86,83.887658 86,82.5155329 L86,40.4846539 C85.9998121,39.112342 84.8805381,38 83.4998622,38 Z" id="Shape"></path>
            </g>
        </g>
    </g>
</svg>