<?xml version="1.0" encoding="UTF-8"?>
<svg width="100px" height="100px" viewBox="0 0 100 100" version="1.1" xmlns="http://www.w3.org/2000/svg" xmlns:xlink="http://www.w3.org/1999/xlink">
    <!-- Generator: Sketch 48.1 (47250) - http://www.bohemiancoding.com/sketch -->
    <title>icon3</title>
    <desc>Created with Sketch.</desc>
    <defs></defs>
    <g id="demo-page" stroke="none" stroke-width="1" fill="none" fill-rule="evenodd">
        <g id="icon3" fill="#398186" fill-rule="nonzero">
            <g id="001-favorites" transform="translate(1.000000, 2.000000)">
                <path d="M89.0588808,37.8489256 C90.8195019,36.1205917 91.4410652,33.5840317 90.6814401,31.22916 C89.921625,28.8742882 87.9382439,27.1903245 85.5051646,26.8344067 L64.2299643,23.7210341 C63.8123604,23.6600251 63.4513486,23.3959077 63.2644808,23.0145535 L53.7499864,3.59972349 C52.6620133,1.37930113 50.4587207,0 48.0000041,0 C45.5412876,0 43.3379949,1.37930113 42.2500219,3.59972349 L32.7355274,23.0147447 C32.5484698,23.3959077 32.1876478,23.6600251 31.769854,23.7212254 L10.4950335,26.8344067 C8.0619543,27.1903245 6.07876304,28.8742882 5.31875812,31.22916 C4.55875319,33.5840317 5.18050635,36.1205917 6.94131735,37.8489256 L22.3360698,52.9613765 C22.6382106,53.2581978 22.7762725,53.6856434 22.7048677,54.1046741 L19.0706313,75.4436788 C18.6551164,77.8842309 19.6323741,80.3041279 21.6214524,81.7595469 C23.6105308,83.2153483 26.1985735,83.4033479 28.3745197,82.2514441 L47.4033186,72.1765406 C47.7770542,71.9785959 48.223144,71.9785959 48.5970695,72.1765406 L67.6260583,82.2514441 C68.5725512,82.7525213 69.5967158,83.0001911 70.6159427,82.9999999 C71.9395895,82.9999999 73.2548804,82.582308 74.3785558,81.7593556 C76.3676342,80.3037454 77.3450818,77.8836572 76.929377,75.4434876 L73.2951405,54.1044828 C73.2239257,53.6854522 73.3617976,53.2580065 73.6639385,52.9611852 L89.0588808,37.8489256 Z M68.2396455,54.9781167 L71.8738819,76.317504 C71.995422,77.0316346 71.557688,77.4388077 71.3637937,77.5805246 C71.1697095,77.7220502 70.6497461,78.0160028 70.0131802,77.6786363 L50.9841914,67.6037328 C50.0500424,67.1093493 49.0253081,66.8618707 48.0003839,66.8618707 C46.9754598,66.8618707 45.9505356,67.1093493 45.0165765,67.6035415 L25.9877776,77.6782538 C25.3508319,78.015429 24.8310584,77.7218589 24.6371641,77.5801421 C24.4432698,77.4384252 24.0053459,77.0312521 24.1270759,76.3171215 L27.7613123,54.9781167 C28.1181462,52.8829636 27.4289763,50.7463091 25.9171324,49.2623938 L10.52238,34.1499429 C10.0071643,33.6438932 10.1237668,33.0554143 10.1980201,32.8259133 C10.2718937,32.596221 10.5212406,32.0509649 11.2331992,31.9469244 L32.5078298,28.8335518 C34.596609,28.527933 36.4016681,27.2075371 37.336007,25.3009574 L46.8505014,5.88593614 C47.1689743,5.23625701 47.7607222,5.16606794 48.0005739,5.16606794 C48.2400457,5.16606794 48.8317936,5.23606576 49.1504564,5.88593614 L49.1504564,5.88612739 L58.6649508,25.3011486 C59.5990998,27.2077283 61.403969,28.5281242 63.4927482,28.8337431 L84.7677586,31.9471156 C85.4797172,32.0511561 85.7288742,32.5964123 85.8029377,32.8261045 C85.8770011,33.0557968 85.9937935,33.6444669 85.4783879,34.1501342 L70.0836355,49.262585 C68.5719815,50.7463091 67.8828116,52.8829636 68.2396455,54.9781167 Z" id="Shape"></path>
                <path d="M78.9227129,4.49674241 C77.7549433,3.65267401 76.1211106,3.9102843 75.2729493,5.07203356 L72.4992063,8.87111154 C71.651045,10.0328608 71.909711,11.6591943 73.0772871,12.5032627 C73.5414155,12.8384641 74.0786747,13 74.6110971,13 C75.4192107,13 76.2159097,12.6282171 76.7270507,11.928164 L79.5007937,8.12908607 C80.348955,6.96714427 80.090289,5.34081082 78.9227129,4.49674241 Z" id="Shape"></path>
                <path d="M25.5007003,8.87088044 L22.7269715,5.07176698 C21.8790079,3.91039194 20.2449901,3.65277923 19.0772264,4.49647046 C17.9098497,5.34054675 17.6509916,6.96689539 18.4991486,8.1286555 L21.2728774,11.927769 C21.7842093,12.6284062 22.5809043,13 23.3892072,13 C23.9218204,13 24.4592703,12.8384626 24.9228159,12.5030655 C26.0901926,11.6591817 26.3490508,10.0328331 25.5007003,8.87088044 Z" id="Shape"></path>
                <path d="M9.867632,57.6208313 C9.40861956,56.3893583 7.89138928,55.7151993 6.47850717,56.1153889 L1.85910952,57.424122 C0.446227413,57.8243117 -0.326626071,59.147455 0.132386369,60.378928 C0.501587699,61.3701136 1.55602192,62 2.68971295,62 C2.96512041,62 3.24530718,61.9626721 3.52151119,61.8843704 L8.14090884,60.5756373 C9.55359181,60.1754476 10.3266444,58.8526515 9.867632,57.6208313 Z" id="Shape"></path>
                <path d="M49.5,86 C48.1193173,86 47,87.2940044 47,88.8901642 L47,94.1098358 C47,95.7059956 48.1193173,97 49.5,97 C50.8806827,97 52,95.7059956 52,94.1098358 L52,88.8901642 C52,87.2937904 50.8808678,86 49.5,86 Z" id="Shape"></path>
                <path d="M96.1409088,57.4240739 L91.5215112,56.1152775 C90.1092265,55.7154157 88.5913988,56.3890864 88.1323864,57.6209664 C87.6733739,58.8528463 88.4462274,60.1757065 89.8591095,60.5759155 L94.4785072,61.884712 C94.7547112,61.9628439 95.0346988,62 95.3101063,62 C96.4439964,62 97.4984307,61.3699095 97.867632,60.3788495 C98.3266444,59.1471432 97.5535918,57.824283 96.1409088,57.4240739 Z" id="Shape"></path>
            </g>
        </g>
    </g>
</svg>