<?xml version="1.0" encoding="UTF-8"?>
<svg width="300px" height="47px" viewBox="0 0 300 47" version="1.1" xmlns="http://www.w3.org/2000/svg" xmlns:xlink="http://www.w3.org/1999/xlink">
    <!-- Generator: Sketch 42 (36781) - http://www.bohemiancoding.com/sketch -->
    <title>99logo</title>
    <desc>Created with Sketch.</desc>
    <defs></defs>
    <g id="Page-1" stroke="none" stroke-width="1" fill="none" fill-rule="evenodd">
        <g id="Home-page" transform="translate(-570.000000, -4843.000000)" fill="#FFFFFF">
            <g id="99ui" transform="translate(50.000000, 4703.000000)">
                <g id="99logo" transform="translate(520.000000, 140.000000)">
                    <path d="M31.6437239,22.5163448 C32.3226399,23.8003595 33.1755704,24.9436644 34.2025299,25.946281 C35.5221545,27.2346254 37.0545988,28.2483893 38.7999087,28.9876033 C40.5452187,29.7268173 42.4182061,30.0964187 44.4189273,30.0964187 C45.1851609,30.0964187 46.0258769,30.0330585 46.9411004,29.9063361 C47.8563239,29.7796137 48.633188,29.5684129 49.271716,29.2727273 L49.3355685,29.3360882 L37.7144165,46 L47.0368791,46 L58.3387687,28.6391185 C59.0624338,27.4986169 59.7115942,26.4003726 60.2862694,25.3443526 C60.8609447,24.2883326 61.3504755,23.2428886 61.7548766,22.207989 C62.1592777,21.1730894 62.4678949,20.0959652 62.6807376,18.976584 C62.8935803,17.8572029 63,16.6639182 63,15.3966942 C63,13.2424135 62.584963,11.2254456 61.7548766,9.34573003 C60.9247901,7.46601448 59.7648149,5.82920807 58.2749162,4.43526171 C56.7850175,3.04131534 55.0290917,1.95363109 53.0070863,1.17217631 C50.9850809,0.390721529 48.8034762,0 46.4622067,0 C44.1635058,0 42.0031851,0.369601446 39.9811797,1.10881543 C37.9591742,1.84802941 36.2138905,2.90403354 34.745276,4.2768595 C33.402823,5.53175277 32.3182595,7.02486735 31.491559,8.75624123 C30.6869341,7.12178308 29.6186395,5.68146827 28.2866502,4.43526171 C26.7967515,3.04131534 25.0408258,1.95363109 23.0188203,1.17217631 C20.9968149,0.390721529 18.8152102,0 16.4739408,0 C14.1752399,0 12.0149191,0.369601446 9.99291369,1.10881543 C7.97090826,1.84802941 6.2256245,2.90403354 4.75701003,4.2768595 C3.28839556,5.64968547 2.12842038,7.30761196 1.27704967,9.25068871 C0.425678967,11.1937655 0,13.3480139 0,15.7134986 C0,17.741057 0.372469096,19.6313044 1.11741846,21.3842975 C1.86236783,23.1372907 2.89463933,24.6579366 4.21426392,25.946281 C5.53388851,27.2346254 7.06633279,28.2483893 8.81164274,28.9876033 C10.5569527,29.7268173 12.4299401,30.0964187 14.4306613,30.0964187 C15.1968949,30.0964187 16.0376109,30.0330585 16.9528344,29.9063361 C17.8680579,29.7796137 18.644922,29.5684129 19.2834501,29.2727273 L19.3473025,29.3360882 L7.72615052,46 L17.0486131,46 L28.3505027,28.6391185 C29.0741678,27.4986169 29.7233283,26.4003726 30.2980035,25.3443526 C30.8156601,24.3931097 31.26423,23.450448 31.6437239,22.5163448 Z M25.221731,15.2066116 C25.221731,14.0238692 25.0195335,12.9045048 24.6151324,11.8484848 C24.2107314,10.7924649 23.6254228,9.8526212 22.8591891,9.02892562 C22.0929555,8.20523004 21.1777457,7.55050748 20.1135323,7.06473829 C19.049319,6.5789691 17.8574179,6.33608815 16.5377933,6.33608815 C13.9411126,6.33608815 11.8446437,7.17033142 10.2483236,8.83884298 C8.65200355,10.5073545 7.85385549,12.672163 7.85385549,15.3333333 C7.85385549,16.6005573 8.05605299,17.7727219 8.46045408,18.8498623 C8.86485516,19.9270026 9.45016374,20.8457262 10.2163974,21.6060606 C10.982631,22.366395 11.8871988,22.9683173 12.9301279,23.4118457 C13.973057,23.8553741 15.1330322,24.077135 16.4100883,24.077135 C17.6871443,24.077135 18.8684035,23.8659342 19.9539011,23.4435262 C21.0393988,23.0211182 21.9758925,22.4191958 22.7634104,21.637741 C23.5509283,20.8562863 24.1575208,19.9164426 24.5832062,18.8181818 C25.0088915,17.719921 25.221731,16.5160763 25.221731,15.2066116 Z M55.209997,15.2066116 C55.209997,14.0238692 55.0077995,12.9045048 54.6033984,11.8484848 C54.1989973,10.7924649 53.6136887,9.8526212 52.8474551,9.02892562 C52.0812215,8.20523004 51.1660117,7.55050748 50.1017983,7.06473829 C49.0375849,6.5789691 47.8456838,6.33608815 46.5260592,6.33608815 C43.9293786,6.33608815 41.8329097,7.17033142 40.2365896,8.83884298 C38.6402695,10.5073545 37.8421215,12.672163 37.8421215,15.3333333 C37.8421215,16.6005573 38.044319,17.7727219 38.44872,18.8498623 C38.8531211,19.9270026 39.4384297,20.8457262 40.2046633,21.6060606 C40.970897,22.366395 41.8754648,22.9683173 42.9183939,23.4118457 C43.961323,23.8553741 45.1212982,24.077135 46.3983543,24.077135 C47.6754103,24.077135 48.8566695,23.8659342 49.9421671,23.4435262 C51.0276647,23.0211182 51.9641585,22.4191958 52.7516764,21.637741 C53.5391943,20.8562863 54.1457868,19.9164426 54.5714722,18.8181818 C54.9971575,17.719921 55.209997,16.5160763 55.209997,15.2066116 Z" id="99"></path>
                    <path d="M84.0246345,46.4923077 C83.9693102,45.9564076 83.9347331,45.4275667 83.920902,44.9057692 C83.907071,44.3839717 83.9001555,43.8551309 83.9001555,43.3192308 L83.8171695,43.3192308 C83.512886,43.8551309 83.1256218,44.3487157 82.6553655,44.8 C82.1851091,45.2512843 81.6595363,45.6391009 81.0786314,45.9634615 C80.4977265,46.2878221 79.8822531,46.5416657 79.2321928,46.725 C78.5821326,46.9083342 77.9389975,47 77.3027683,47 C74.8131757,47 72.9736711,46.3301349 71.7841991,44.9903846 C70.5947271,43.6506343 70,41.739756 70,39.2576923 L70,26.6923077 L72.7385381,26.6923077 L72.7385381,37.65 C72.7385381,38.7500055 72.8215233,39.7230727 72.9874961,40.5692308 C73.1534689,41.4153888 73.4370016,42.1275612 73.8381026,42.7057692 C74.2392037,43.2839772 74.7786073,43.7211524 75.4563297,44.0173077 C76.1340521,44.313463 76.9846501,44.4615385 78.0081493,44.4615385 C78.14646,44.4615385 78.5337241,44.4051288 79.1699533,44.2923077 C79.8061825,44.1794866 80.4769794,43.8692333 81.1823639,43.3615385 C81.8877485,42.8538436 82.5170527,42.0923128 83.0702955,41.0769231 C83.6235383,40.0615334 83.9001555,38.6512911 83.9001555,36.8461538 L83.9001555,26.6923077 L86.6386936,26.6923077 L86.6386936,42.1346154 C86.6386936,42.6705155 86.6594399,43.3474318 86.7009331,44.1653846 C86.7424263,44.9833374 86.7908344,45.7589707 86.8461586,46.4923077 L84.0246345,46.4923077 Z M96.3380404,19.0769231 C96.3380404,19.6692337 96.1305775,20.1557673 95.7156454,20.5365385 C95.3007133,20.9173096 94.8442949,21.1076923 94.3463764,21.1076923 C93.8484579,21.1076923 93.3920394,20.9173096 92.9771073,20.5365385 C92.5621752,20.1557673 92.3547123,19.6692337 92.3547123,19.0769231 C92.3547123,18.4846124 92.5621752,17.9980788 92.9771073,17.6173077 C93.3920394,17.2365366 93.8484579,17.0461538 94.3463764,17.0461538 C94.8442949,17.0461538 95.3007133,17.2365366 95.7156454,17.6173077 C96.1305775,17.9980788 96.3380404,18.4846124 96.3380404,19.0769231 Z M95.7156454,46.4923077 L92.9771073,46.4923077 L92.9771073,26.6923077 L95.7156454,26.6923077 L95.7156454,46.4923077 Z M106.618289,44.4615385 C106.618289,45.0538491 106.410826,45.58269 105.995894,46.0480769 C105.580962,46.5134639 105.041559,46.7461538 104.377667,46.7461538 C103.713776,46.7461538 103.174372,46.5134639 102.75944,46.0480769 C102.344508,45.58269 102.137045,45.0538491 102.137045,44.4615385 C102.137045,43.8692278 102.344508,43.3403869 102.75944,42.875 C103.174372,42.4096131 103.713776,42.1769231 104.377667,42.1769231 C105.041559,42.1769231 105.580962,42.4096131 105.995894,42.875 C106.410826,43.3403869 106.618289,43.8692278 106.618289,44.4615385 Z M113.247154,26.6923077 L117.728398,42.7692308 L117.811384,42.7692308 L122.998009,26.6923077 L125.819533,26.6923077 L131.006159,42.7692308 L131.089145,42.7692308 L135.570389,26.6923077 L138.806843,26.6923077 L132.665879,46.4923077 L129.595397,46.4923077 L124.450264,30.2461538 L124.367278,30.2461538 L119.222146,46.4923077 L116.151664,46.4923077 L110.0107,26.6923077 L113.247154,26.6923077 Z M156.763297,35.0692308 C156.763297,33.1794777 156.210063,31.6493648 155.103577,30.4788462 C153.997091,29.3083275 152.448035,28.7230769 150.456361,28.7230769 C149.571172,28.7230769 148.713659,28.8993572 147.883795,29.2519231 C147.053931,29.6044889 146.32781,30.0769201 145.705412,30.6692308 C145.083014,31.2615414 144.585103,31.9384577 144.211664,32.7 C143.838225,33.4615423 143.651509,34.251278 143.651509,35.0692308 L156.763297,35.0692308 Z M143.568523,37.3538462 C143.651509,38.3410306 143.886634,39.2717905 144.273904,40.1461538 C144.661174,41.0205172 145.172915,41.7749968 145.809145,42.4096154 C146.445374,43.0442339 147.17841,43.54487 148.008274,43.9115385 C148.838138,44.278207 149.737144,44.4615385 150.705319,44.4615385 C152.171412,44.4615385 153.436936,44.1160291 154.501928,43.425 C155.566921,42.7339709 156.376026,41.937184 156.929269,41.0346154 L159.045412,42.8115385 C157.883602,44.3064177 156.604248,45.3782019 155.207309,46.0269231 C153.810371,46.6756443 152.309723,47 150.705319,47 C149.266888,47 147.932209,46.7391052 146.701244,46.2173077 C145.470279,45.6955102 144.412218,44.9692354 143.52703,44.0384615 C142.641841,43.1076877 141.943383,42.0076987 141.431633,40.7384615 C140.919883,39.4692244 140.664012,38.087187 140.664012,36.5923077 C140.664012,35.0974284 140.912968,33.715391 141.410886,32.4461538 C141.908805,31.1769167 142.600348,30.0769277 143.485537,29.1461538 C144.370725,28.21538 145.40804,27.4891052 146.597512,26.9673077 C147.786984,26.4455102 149.073254,26.1846154 150.456361,26.1846154 C151.922454,26.1846154 153.236386,26.4525614 154.398196,26.9884615 C155.560006,27.5243617 156.535082,28.236534 157.323453,29.125 C158.111824,30.013466 158.713466,31.0570453 159.128398,32.2557692 C159.54333,33.4544932 159.750793,34.7307625 159.750793,36.0846154 L159.750793,37.3538462 L143.568523,37.3538462 Z M181.732068,36.5923077 C181.732068,35.4923022 181.559183,34.4628253 181.213406,33.5038462 C180.867629,32.544867 180.376634,31.712824 179.740404,31.0076923 C179.104175,30.3025606 178.336562,29.7455149 177.437543,29.3365385 C176.538523,28.9275621 175.521955,28.7230769 174.387807,28.7230769 C173.253659,28.7230769 172.216345,28.9275621 171.275832,29.3365385 C170.335319,29.7455149 169.519298,30.3025606 168.827745,31.0076923 C168.136191,31.712824 167.596788,32.544867 167.209518,33.5038462 C166.822248,34.4628253 166.628616,35.4923022 166.628616,36.5923077 C166.628616,37.6923132 166.822248,38.7217901 167.209518,39.6807692 C167.596788,40.6397484 168.136191,41.4717913 168.827745,42.1769231 C169.519298,42.8820548 170.335319,43.4391005 171.275832,43.8480769 C172.216345,44.2570533 173.253659,44.4615385 174.387807,44.4615385 C175.521955,44.4615385 176.538523,44.2570533 177.437543,43.8480769 C178.336562,43.4391005 179.104175,42.8820548 179.740404,42.1769231 C180.376634,41.4717913 180.867629,40.6397484 181.213406,39.6807692 C181.559183,38.7217901 181.732068,37.6923132 181.732068,36.5923077 Z M164.014557,14.5076923 L166.753095,14.5076923 L166.753095,29.9923077 L166.836081,29.9923077 C167.278675,29.3153812 167.804248,28.7371819 168.412815,28.2576923 C169.021382,27.7782027 169.657602,27.3833349 170.321493,27.0730769 C170.985384,26.762819 171.670012,26.5371802 172.375397,26.3961538 C173.080781,26.2551275 173.751578,26.1846154 174.387807,26.1846154 C175.909225,26.1846154 177.299226,26.4455102 178.557854,26.9673077 C179.816481,27.4891052 180.902204,28.21538 181.815054,29.1461538 C182.727905,30.0769277 183.440194,31.1769167 183.951944,32.4461538 C184.463694,33.715391 184.719565,35.0974284 184.719565,36.5923077 C184.719565,38.087187 184.463694,39.4692244 183.951944,40.7384615 C183.440194,42.0076987 182.727905,43.1076877 181.815054,44.0384615 C180.902204,44.9692354 179.816481,45.6955102 178.557854,46.2173077 C177.299226,46.7391052 175.909225,47 174.387807,47 C173.751578,47 173.080781,46.9294879 172.375397,46.7884615 C171.670012,46.6474352 170.985384,46.4217964 170.321493,46.1115385 C169.657602,45.8012805 169.021382,45.4064127 168.412815,44.9269231 C167.804248,44.4474335 167.278675,43.8692342 166.836081,43.1923077 L166.753095,43.1923077 L166.753095,46.4923077 L164.014557,46.4923077 L164.014557,14.5076923 Z M197.696858,29.2307692 L193.091135,29.2307692 L193.091135,46.4923077 L190.352597,46.4923077 L190.352597,29.2307692 L186.24479,29.2307692 L186.24479,26.6923077 L190.352597,26.6923077 L190.352597,21.2769231 C190.352597,18.653833 190.947324,16.785262 192.136796,15.6711538 C193.326268,14.5570457 194.902987,14 196.866998,14 C197.254268,14 197.648448,14.0282048 198.049549,14.0846154 C198.45065,14.1410259 198.84483,14.211538 199.2321,14.2961538 L198.734184,16.8346154 C198.402238,16.7499996 198.056466,16.6794875 197.696858,16.6230769 C197.337251,16.5666664 196.977648,16.5384615 196.61804,16.5384615 C195.871163,16.5384615 195.262605,16.6653833 194.792348,16.9192308 C194.322092,17.1730782 193.96249,17.53269 193.71353,17.9980769 C193.464571,18.4634639 193.298601,19.0064072 193.215614,19.6269231 C193.132628,20.247439 193.091135,20.9102529 193.091135,21.6153846 L193.091135,26.6923077 L197.696858,26.6923077 L197.696858,29.2307692 Z M203.578849,46.4923077 L200.840311,46.4923077 L200.840311,14.5076923 L203.578849,14.5076923 L203.578849,46.4923077 Z M226.099533,36.5923077 C226.099533,35.4923022 225.926648,34.4628253 225.580871,33.5038462 C225.235094,32.544867 224.744099,31.712824 224.107869,31.0076923 C223.47164,30.3025606 222.704027,29.7455149 221.805008,29.3365385 C220.905988,28.9275621 219.88942,28.7230769 218.755272,28.7230769 C217.621124,28.7230769 216.604556,28.9275621 215.705537,29.3365385 C214.806517,29.7455149 214.04582,30.3025606 213.423421,31.0076923 C212.801023,31.712824 212.316943,32.544867 211.971166,33.5038462 C211.62539,34.4628253 211.452504,35.4923022 211.452504,36.5923077 C211.452504,37.6923132 211.62539,38.7217901 211.971166,39.6807692 C212.316943,40.6397484 212.801023,41.4717913 213.423421,42.1769231 C214.04582,42.8820548 214.806517,43.4391005 215.705537,43.8480769 C216.604556,44.2570533 217.621124,44.4615385 218.755272,44.4615385 C219.88942,44.4615385 220.905988,44.2570533 221.805008,43.8480769 C222.704027,43.4391005 223.47164,42.8820548 224.107869,42.1769231 C224.744099,41.4717913 225.235094,40.6397484 225.580871,39.6807692 C225.926648,38.7217901 226.099533,37.6923132 226.099533,36.5923077 Z M229.08703,36.5923077 C229.08703,38.087187 228.831159,39.4692244 228.319409,40.7384615 C227.807659,42.0076987 227.09537,43.1076877 226.182519,44.0384615 C225.269669,44.9692354 224.183946,45.6955102 222.925319,46.2173077 C221.666691,46.7391052 220.27669,47 218.755272,47 C217.261517,47 215.885346,46.7391052 214.626719,46.2173077 C213.368091,45.6955102 212.282368,44.9692354 211.369518,44.0384615 C210.456667,43.1076877 209.744378,42.0076987 209.232628,40.7384615 C208.720879,39.4692244 208.465008,38.087187 208.465008,36.5923077 C208.465008,35.0974284 208.720879,33.715391 209.232628,32.4461538 C209.744378,31.1769167 210.456667,30.0769277 211.369518,29.1461538 C212.282368,28.21538 213.368091,27.4891052 214.626719,26.9673077 C215.885346,26.4455102 217.261517,26.1846154 218.755272,26.1846154 C220.27669,26.1846154 221.666691,26.4455102 222.925319,26.9673077 C224.183946,27.4891052 225.269669,28.21538 226.182519,29.1461538 C227.09537,30.0769277 227.807659,31.1769167 228.319409,32.4461538 C228.831159,33.715391 229.08703,35.0974284 229.08703,36.5923077 Z M234.180653,26.6923077 L238.661897,42.7692308 L238.744883,42.7692308 L243.931509,26.6923077 L246.753033,26.6923077 L251.939658,42.7692308 L252.022644,42.7692308 L256.503888,26.6923077 L259.740342,26.6923077 L253.599378,46.4923077 L250.528896,46.4923077 L245.383764,30.2461538 L245.300778,30.2461538 L240.155645,46.4923077 L237.085163,46.4923077 L230.944199,26.6923077 L234.180653,26.6923077 Z M265.331882,44.4615385 C265.331882,45.0538491 265.124419,45.58269 264.709487,46.0480769 C264.294555,46.5134639 263.755151,46.7461538 263.09126,46.7461538 C262.427368,46.7461538 261.887965,46.5134639 261.473033,46.0480769 C261.058101,45.58269 260.850638,45.0538491 260.850638,44.4615385 C260.850638,43.8692278 261.058101,43.3403869 261.473033,42.875 C261.887965,42.4096131 262.427368,42.1769231 263.09126,42.1769231 C263.755151,42.1769231 264.294555,42.4096131 264.709487,42.875 C265.124419,43.3403869 265.331882,43.8692278 265.331882,44.4615385 Z M275.114215,19.0769231 C275.114215,19.6692337 274.906752,20.1557673 274.49182,20.5365385 C274.076888,20.9173096 273.620469,21.1076923 273.122551,21.1076923 C272.624632,21.1076923 272.168214,20.9173096 271.753281,20.5365385 C271.338349,20.1557673 271.130886,19.6692337 271.130886,19.0769231 C271.130886,18.4846124 271.338349,17.9980788 271.753281,17.6173077 C272.168214,17.2365366 272.624632,17.0461538 273.122551,17.0461538 C273.620469,17.0461538 274.076888,17.2365366 274.49182,17.6173077 C274.906752,17.9980788 275.114215,18.4846124 275.114215,19.0769231 Z M274.49182,46.4923077 L271.753281,46.4923077 L271.753281,26.6923077 L274.49182,26.6923077 L274.49182,46.4923077 Z M297.012504,36.5923077 C297.012504,35.4923022 296.839618,34.4628253 296.493841,33.5038462 C296.148065,32.544867 295.657069,31.712824 295.02084,31.0076923 C294.384611,30.3025606 293.616998,29.7455149 292.717978,29.3365385 C291.818959,28.9275621 290.80239,28.7230769 289.668243,28.7230769 C288.534095,28.7230769 287.517527,28.9275621 286.618507,29.3365385 C285.719487,29.7455149 284.95879,30.3025606 284.336392,31.0076923 C283.713994,31.712824 283.229914,32.544867 282.884137,33.5038462 C282.53836,34.4628253 282.365474,35.4923022 282.365474,36.5923077 C282.365474,37.6923132 282.53836,38.7217901 282.884137,39.6807692 C283.229914,40.6397484 283.713994,41.4717913 284.336392,42.1769231 C284.95879,42.8820548 285.719487,43.4391005 286.618507,43.8480769 C287.517527,44.2570533 288.534095,44.4615385 289.668243,44.4615385 C290.80239,44.4615385 291.818959,44.2570533 292.717978,43.8480769 C293.616998,43.4391005 294.384611,42.8820548 295.02084,42.1769231 C295.657069,41.4717913 296.148065,40.6397484 296.493841,39.6807692 C296.839618,38.7217901 297.012504,37.6923132 297.012504,36.5923077 Z M300,36.5923077 C300,38.087187 299.744129,39.4692244 299.232379,40.7384615 C298.72063,42.0076987 298.00834,43.1076877 297.09549,44.0384615 C296.182639,44.9692354 295.096917,45.6955102 293.838289,46.2173077 C292.579662,46.7391052 291.18966,47 289.668243,47 C288.174487,47 286.798316,46.7391052 285.539689,46.2173077 C284.281062,45.6955102 283.195339,44.9692354 282.282488,44.0384615 C281.369638,43.1076877 280.657348,42.0076987 280.145599,40.7384615 C279.633849,39.4692244 279.377978,38.087187 279.377978,36.5923077 C279.377978,35.0974284 279.633849,33.715391 280.145599,32.4461538 C280.657348,31.1769167 281.369638,30.0769277 282.282488,29.1461538 C283.195339,28.21538 284.281062,27.4891052 285.539689,26.9673077 C286.798316,26.4455102 288.174487,26.1846154 289.668243,26.1846154 C291.18966,26.1846154 292.579662,26.4455102 293.838289,26.9673077 C295.096917,27.4891052 296.182639,28.21538 297.09549,29.1461538 C298.00834,30.0769277 298.72063,31.1769167 299.232379,32.4461538 C299.744129,33.715391 300,35.0974284 300,36.5923077 Z" id="ui.webflow.io"></path>
                </g>
            </g>
        </g>
    </g>
</svg>