<?xml version="1.0" encoding="UTF-8"?>
<svg width="30px" height="28px" viewBox="0 0 30 28" version="1.1" xmlns="http://www.w3.org/2000/svg" xmlns:xlink="http://www.w3.org/1999/xlink">
    <!-- Generator: Sketch 42 (36781) - http://www.bohemiancoding.com/sketch -->
    <title>“</title>
    <desc>Created with Sketch.</desc>
    <defs></defs>
    <g id="Page-1" stroke="none" stroke-width="1" fill="none" fill-rule="evenodd">
        <g id="Home-page" transform="translate(-768.000000, -2571.000000)" fill="#999999">
            <g id="works" transform="translate(50.000000, 1212.000000)">
                <g id="work3" transform="translate(176.000000, 1281.000000)">
                    <g id="content-copy" transform="translate(542.000000, 10.000000)">
                        <g id="my-ipression" transform="translate(0.000000, 68.000000)">
                            <path d="M11.1201172,15.6142578 L11.1201172,27.65625 L0,27.65625 L0,18.1494141 C0,13.0022529 0.614577188,9.27637871 1.84375,6.97167969 C3.45703932,3.89874766 6.01137575,1.57487767 9.50683594,0 L12.0419922,4.03320312 C9.92935142,4.91667108 8.37370291,6.23225038 7.375,7.97998047 C6.37629709,9.72771056 5.81933651,12.2724442 5.70410156,15.6142578 L11.1201172,15.6142578 Z M28.9814453,15.6142578 L28.9814453,27.65625 L17.8613281,27.65625 L17.8613281,18.1494141 C17.8613281,13.0022529 18.4759053,9.27637871 19.7050781,6.97167969 C21.3183674,3.89874766 23.8727039,1.57487767 27.3681641,0 L29.9033203,4.03320312 C27.7906795,4.91667108 26.235031,6.23225038 25.2363281,7.97998047 C24.2376252,9.72771056 23.6806646,12.2724442 23.5654297,15.6142578 L28.9814453,15.6142578 Z" id="“"></path>
                        </g>
                    </g>
                </g>
            </g>
        </g>
    </g>
</svg>