<?xml version="1.0" encoding="UTF-8"?>
<svg width="100px" height="95px" viewBox="0 0 100 95" version="1.1" xmlns="http://www.w3.org/2000/svg" xmlns:xlink="http://www.w3.org/1999/xlink">
    <!-- Generator: Sketch 42 (36781) - http://www.bohemiancoding.com/sketch -->
    <title>logo</title>
    <desc>Created with Sketch.</desc>
    <defs></defs>
    <g id="Page-1" stroke="none" stroke-width="1" fill="none" fill-rule="evenodd">
        <g id="Home-page" transform="translate(-20.000000, -20.000000)">
            <g id="main-nav" transform="translate(20.000000, 18.000000)">
                <g id="logo" transform="translate(0.000000, 2.000000)">
                    <rect id="Rectangle-2" fill="#FFFFFF" x="0" y="0" width="96" height="95"></rect>
                    <g id="web-art-logo" fill="#060619">
                        <path d="M52.9681462,68.6401099 L52.9681462,66.6586813 L45.7180157,66.6586813 L45.7180157,68.6401099 L48.1618799,68.6401099 L48.1618799,83.6772527 L45.7180157,83.6772527 L45.7180157,85.6589423 L52.9681462,85.6589423 L52.9681462,83.6775137 L50.524282,83.6775137 L50.524282,68.6401099 L52.9681462,68.6401099 L52.9681462,68.6401099 Z M82.5112272,66.6599863 L73.2519582,66.6599863 L73.2519582,68.6696016 L80.0665796,68.6696016 L72.6253264,83.2719368 L72.6253264,85.6599863 L82.237859,85.6599863 L82.237859,83.6503709 L75.0984334,83.6503709 L82.5114883,69.0480357 L82.5114883,66.6599863 L82.5112272,66.6599863 Z M83.0806789,37.9498901 L72.0835509,37.9498901 L72.0835509,40.0117033 L76.4010444,40.0117033 L76.4010444,56.9498901 L78.7639687,56.9498901 L78.7639687,40.0117033 L83.0809399,40.0117033 L83.0809399,37.9498901 L83.0806789,37.9498901 Z M82.3496084,15.0227885 L82.3496084,13.4756456 C82.3496084,11.9556456 81.9739774,10.8699313 81.2227154,10.2185027 C80.4714534,9.56707418 79.2902524,9.24135989 77.6791123,9.24135989 L72.573107,9.24135989 L72.573107,28.2413599 L78.0039164,28.2413599 C79.6510009,28.2413599 80.8322019,27.9156456 81.5475196,27.264217 C82.2628372,26.6127885 82.6203655,25.5089789 82.6201044,23.9527885 L82.6208877,23.9527885 L82.6208877,21.5099313 C82.6208877,19.9352976 82.03255,18.8224405 80.8558747,18.1713599 C81.8518712,17.4656456 82.3498695,16.4161218 82.3498695,15.0227885 L82.3496084,15.0227885 Z M74.9344648,11.2775962 L78.0023499,11.2775962 C78.6899043,11.2775962 79.1922541,11.4314057 79.5093995,11.7390247 C79.8265448,12.0466438 79.9849434,12.5442628 79.9845953,13.2318819 L79.9853786,13.2326648 L79.9853786,15.294478 C80.0088718,15.8332852 79.8014547,16.3565507 79.4151436,16.7330495 C79.0356948,17.0949285 78.5273822,17.2903528 78.0031332,17.2759066 L74.9347258,17.2759066 L74.9347258,11.2770742 L74.9344648,11.2775962 Z M80.2574413,21.2669505 L80.2574413,24.225 C80.2574413,24.912967 80.094517,25.4151099 79.7686684,25.7314286 C79.4428198,26.0477473 78.9359443,26.2060806 78.2480418,26.2064286 L74.9347258,26.2064286 L74.9347258,19.3113599 L78.2767624,19.3113599 C78.8082457,19.2866689 79.3271889,19.4775222 79.7159269,19.8406456 C80.0882063,20.2189205 80.2851397,20.7356575 80.2590078,21.2656456 L80.2574413,21.2669505 Z M22.718799,37.9498901 L19.5960836,37.9498901 L15.0070496,56.9498901 L17.4237598,56.9498901 L18.4827676,52.1456044 L23.7778068,52.1456044 L24.8091384,56.9498901 L27.2258486,56.9498901 L22.718799,37.9498901 Z M18.9172324,50.1098901 L21.1167102,39.7413187 L23.343342,50.1098901 L18.9177546,50.1098901 L18.9172324,50.1098901 Z M21.062141,20.5327885 L22.6109661,28.2413599 L26.0313316,28.2413599 L26.9545692,9.24135989 L25.0809399,9.24135989 L24.2391645,26.2056456 L21.9321149,17.2485027 L20.2480418,17.2485027 L17.9942559,26.2056456 L17.1796345,9.24135989 L15.1697128,9.24135989 L16.0929504,28.2413599 L19.351436,28.2413599 L21.062141,20.5327885 Z M25.8686684,72.4401099 L25.8686684,70.892967 C25.8686684,69.372967 25.4930374,68.2872527 24.7417755,67.6358242 C23.9905135,66.9843956 22.8093124,66.6586813 21.1981723,66.6586813 L16.0937337,66.6586813 L16.0937337,85.6586813 L21.5245431,85.6586813 C23.1715405,85.6586813 24.3527415,85.332967 25.0681462,84.6815385 C25.7835509,84.0301099 26.1410792,82.9263004 26.1407311,81.3701099 L26.1407311,78.9272527 C26.1407311,77.352619 25.5523934,76.2397619 24.375718,75.5886813 C25.3706701,74.882967 25.8683203,73.8334432 25.8686684,72.4401099 Z M18.4556136,68.6949176 L21.5234987,68.6949176 C22.2110531,68.6949176 22.713403,68.8487271 23.0305483,69.1563462 C23.3476936,69.4639652 23.5060923,69.9615842 23.5057441,70.6492033 L23.5057441,72.7115385 C23.5292373,73.2503457 23.3218203,73.7736111 22.9355091,74.1501099 C22.5560287,74.511939 22.0477377,74.707355 21.5234987,74.692967 L18.4556136,74.692967 L18.4556136,68.6946566 L18.4556136,68.6949176 Z M23.7778068,78.684272 L23.7778068,81.6425824 C23.7778068,82.3305495 23.6148825,82.8326923 23.2890339,83.149011 C22.9631854,83.4653297 22.4563098,83.623663 21.7684073,83.624011 L18.4556136,83.624011 L18.4556136,76.7289423 L21.7955614,76.7289423 C22.3270354,76.7043111 22.8459561,76.8951561 23.2347258,77.258228 C23.6069503,77.6365382 23.8038741,78.1532502 23.7778068,78.683228 L23.7778068,78.684011 L23.7778068,78.684272 Z M53.8903394,11.2225275 L53.8903394,9.2410989 L44.8219321,9.2410989 L44.8227154,9.2410989 L44.8227154,28.2410989 L53.8903394,28.2410989 L53.8903394,26.2599313 L47.1843342,26.2599313 L47.1843342,19.4199313 L53.2114883,19.4199313 L53.2114883,17.4385027 L47.1843342,17.4385027 L47.1843342,11.2225275 L53.8903394,11.2225275 Z M51.2574413,48.617033 C52.8866841,48.1107143 53.7013055,46.835 53.7013055,44.7898901 L53.7013055,42.1841758 C53.7013055,40.7184615 53.3075718,39.6463187 52.5201044,38.9677473 C51.7326371,38.2891758 50.5695387,37.9498901 49.0308094,37.9498901 L43.9263708,37.9498901 L43.9263708,56.9498901 L46.289295,56.9498901 L46.289295,49.0789835 L48.9503916,49.0789835 L52.4532637,56.9504121 L55.0328982,56.9504121 L51.2574413,48.617033 Z M49.356658,47.0432692 L46.2887728,47.0432692 L46.2887728,39.9861264 L49.356658,39.9861264 C50.0442124,39.9861264 50.5465622,40.1399359 50.8637076,40.4475549 C51.1808529,40.755174 51.3392515,41.252793 51.3389034,41.9404121 L51.3389034,45.0618407 C51.3389034,45.7498077 51.1805048,46.2519505 50.8637076,46.5682692 C50.5469104,46.8845879 50.0445605,47.0429212 49.356658,47.0432692 Z M3.65535248,2.08791209 L94.5169713,2.08791209 L94.5169713,12.7884615 L96.6057441,12.7884615 L96.6057441,0 L1.56657963,0 L1.56657963,75.6868132 L3.65535248,75.6868132 L3.65535248,2.08791209 Z M91.1227154,17.4862637 L91.1227154,19.5741758 L100,19.5741758 L100,17.4862637 L91.1227154,17.4862637 Z M94.5169713,92.9120879 L3.65535248,92.9120879 L3.65535248,90.3021978 L1.56657963,90.3021978 L1.56657963,95 L96.6057441,95 L96.6057441,24.271978 L94.5169713,24.271978 L94.5169713,92.9120879 Z M5.22193211,82.9945055 C5.22193211,81.553103 4.05296279,80.3846154 2.61096606,80.3846154 C1.16896932,80.3846154 0,81.553103 0,82.9945055 C0,84.435908 1.16896932,85.6043956 2.61096606,85.6043956 C3.30343731,85.6043956 3.96754674,85.3294258 4.45719786,84.8399765 C4.94684898,84.3505272 5.22193211,83.6866914 5.22193211,82.9945055 L5.22193211,82.9945055 Z" id="Shape"></path>
                    </g>
                </g>
            </g>
        </g>
    </g>
</svg>